<svg width="32" height="33" viewBox="0 0 32 33" fill="none" xmlns="http://www.w3.org/2000/svg">
<path d="M2 6.86267C3.77 6.12267 6.308 5.32467 8.776 5.07667C11.436 4.80867 13.692 5.20267 15 6.58067V26.0727C13.13 25.0127 10.76 24.8667 8.574 25.0867C6.214 25.3267 3.834 26.0087 2 26.7087V6.86267ZM17 6.58067C18.308 5.20267 20.564 4.80867 23.224 5.07667C25.692 5.32467 28.23 6.12267 30 6.86267V26.7087C28.164 26.0087 25.786 25.3247 23.426 25.0887C21.238 24.8667 18.87 25.0107 17 26.0727V6.58067ZM16 4.77267C14.03 3.07867 11.174 2.82667 8.574 3.08667C5.546 3.39267 2.49 4.43067 0.586 5.29667C0.411298 5.37613 0.263151 5.50418 0.159242 5.66554C0.0553334 5.8269 5.31428e-05 6.01475 0 6.20667L0 28.2067C4.6324e-05 28.374 0.0420743 28.5386 0.122234 28.6855C0.202394 28.8323 0.318123 28.9568 0.458822 29.0473C0.59952 29.1378 0.760689 29.1916 0.927567 29.2038C1.09444 29.2159 1.2617 29.1859 1.414 29.1167C3.178 28.3167 6.02 27.3547 8.774 27.0767C11.592 26.7927 13.954 27.2507 15.22 28.8307C15.3137 28.9475 15.4324 29.0417 15.5674 29.1065C15.7024 29.1713 15.8503 29.2049 16 29.2049C16.1497 29.2049 16.2976 29.1713 16.4326 29.1065C16.5676 29.0417 16.6863 28.9475 16.78 28.8307C18.046 27.2507 20.408 26.7927 23.224 27.0767C25.98 27.3547 28.824 28.3167 30.586 29.1167C30.7383 29.1859 30.9056 29.2159 31.0724 29.2038C31.2393 29.1916 31.4005 29.1378 31.5412 29.0473C31.6819 28.9568 31.7976 28.8323 31.8778 28.6855C31.9579 28.5386 32 28.374 32 28.2067V6.20667C31.9999 6.01475 31.9447 5.8269 31.8408 5.66554C31.7368 5.50418 31.5887 5.37613 31.414 5.29667C29.51 4.43067 26.454 3.39267 23.426 3.08667C20.826 2.82467 17.97 3.07867 16 4.77267Z" fill="#C47EFB"/>
</svg>
