<svg width="5" height="5" viewBox="0 0 5 5" fill="none" xmlns="http://www.w3.org/2000/svg">
<path d="M1.30269 3.19477C1.12568 2.89613 1.06377 2.54315 1.12857 2.20209C1.19337 1.86104 1.38043 1.55536 1.65463 1.34246C1.92884 1.12955 2.27133 1.02405 2.6178 1.04576C2.96428 1.06747 3.29092 1.21491 3.53639 1.46039C3.78187 1.70586 3.9293 2.0325 3.95102 2.37898C3.97273 2.72545 3.86723 3.06794 3.65432 3.34214C3.44141 3.61635 3.13574 3.80341 2.79469 3.86821C2.45363 3.93301 2.10065 3.8711 1.80201 3.69409V3.69409L1.30863 3.83378C1.28842 3.83969 1.26699 3.84006 1.24658 3.83484C1.22618 3.82962 1.20756 3.81901 1.19266 3.80411C1.17777 3.78922 1.16716 3.7706 1.16194 3.75019C1.15672 3.72979 1.15709 3.70836 1.163 3.68814L1.30269 3.19477Z" stroke="#4F0DA3" stroke-width="0.285326" stroke-linecap="round" stroke-linejoin="round"/>
</svg>
