<svg width="25" height="15" viewBox="0 0 25 15" fill="none" xmlns="http://www.w3.org/2000/svg">
<path d="M1.08199 13.4604C0.904978 13.1618 0.843063 12.8088 0.907864 12.4677C0.972665 12.1267 1.15973 11.821 1.43393 11.6081C1.70813 11.3952 2.05062 11.2897 2.3971 11.3114C2.74358 11.3331 3.07021 11.4805 3.31569 11.726C3.56117 11.9715 3.7086 12.2981 3.73031 12.6446C3.75203 12.9911 3.64653 13.3336 3.43362 13.6078C3.22071 13.882 2.91504 14.069 2.57398 14.1338C2.23293 14.1986 1.87995 14.1367 1.58131 13.9597V13.9597L1.08793 14.0994C1.06772 14.1053 1.04628 14.1057 1.02588 14.1005C1.00548 14.0952 0.986853 14.0846 0.971961 14.0697C0.957068 14.0548 0.946457 14.0362 0.941237 14.0158C0.936018 13.9954 0.936384 13.974 0.942296 13.9538L1.08199 13.4604Z" stroke="#4F0DA3" stroke-width="0.285326" stroke-linecap="round" stroke-linejoin="round"/>
</svg>
