<svg width="16" height="16" viewBox="0 0 16 16" fill="none" xmlns="http://www.w3.org/2000/svg">
<path fill-rule="evenodd" clip-rule="evenodd" d="M7.05913 13.1917C7.16204 13.2612 7.27768 13.3098 7.39939 13.3345C7.52111 13.3592 7.64651 13.3596 7.76838 13.3356C7.89025 13.3117 8.0062 13.2639 8.10955 13.1951C8.2129 13.1262 8.30162 13.0376 8.37062 12.9343C8.43961 12.831 8.48751 12.7152 8.51157 12.5933C8.53564 12.4715 8.53538 12.3461 8.51082 12.2243C8.48626 12.1026 8.43789 11.9869 8.36847 11.8839C8.29906 11.7809 8.20998 11.6926 8.10634 11.6242C7.89861 11.4965 7.64946 11.4542 7.41125 11.5064C7.17303 11.5585 6.96428 11.7009 6.82884 11.9037C6.69341 12.1064 6.64183 12.3538 6.68495 12.5938C6.72807 12.8338 6.86253 13.0478 7.06007 13.1908L7.05913 13.1917ZM7.58321 8.63715C7.33322 8.63715 7.09347 8.53784 6.9167 8.36107C6.73993 8.1843 6.64062 7.94455 6.64062 7.69456C6.64062 7.44458 6.73993 7.20483 6.9167 7.02806C7.09347 6.85129 7.33322 6.75198 7.58321 6.75198C7.8332 6.75198 8.07295 6.85129 8.24972 7.02806C8.42648 7.20483 8.52579 7.44458 8.52579 7.69456C8.52579 7.94455 8.42648 8.1843 8.24972 8.36107C8.07295 8.53784 7.8332 8.63715 7.58321 8.63715ZM7.58321 3.92423C7.33322 3.92423 7.09347 3.82492 6.9167 3.64815C6.73993 3.47138 6.64062 3.23163 6.64062 2.98165C6.64062 2.73166 6.73993 2.49191 6.9167 2.31514C7.09347 2.13837 7.33322 2.03906 7.58321 2.03906C7.8332 2.03906 8.07295 2.13837 8.24972 2.31514C8.42648 2.49191 8.52579 2.73166 8.52579 2.98165C8.52579 3.23163 8.42648 3.47138 8.24972 3.64815C8.07295 3.82492 7.8332 3.92423 7.58321 3.92423Z" fill="#F5F5F5"/>
</svg>
