<svg width="16" height="16" viewBox="0 0 16 16" fill="none" xmlns="http://www.w3.org/2000/svg">
<path fill-rule="evenodd" clip-rule="evenodd" d="M7.444 13.832C7.55318 13.9058 7.67586 13.9572 7.80499 13.9834C7.93412 14.0096 8.06716 14.0101 8.19645 13.9847C8.32575 13.9593 8.44876 13.9086 8.5584 13.8356C8.66805 13.7625 8.76218 13.6685 8.83537 13.5589C8.90857 13.4494 8.95939 13.3264 8.98492 13.1971C9.01044 13.0679 9.01017 12.9348 8.98412 12.8057C8.95806 12.6765 8.90674 12.5538 8.8331 12.4445C8.75945 12.3353 8.66495 12.2416 8.555 12.169C8.33461 12.0335 8.07029 11.9887 7.81756 12.044C7.56483 12.0993 7.34337 12.2504 7.19968 12.4655C7.056 12.6806 7.00128 12.9431 7.04703 13.1977C7.09277 13.4523 7.23542 13.6793 7.445 13.831L7.444 13.832ZM8 9C7.73478 9 7.48043 8.89464 7.29289 8.70711C7.10536 8.51957 7 8.26522 7 8C7 7.73478 7.10536 7.48043 7.29289 7.29289C7.48043 7.10536 7.73478 7 8 7C8.26522 7 8.51957 7.10536 8.70711 7.29289C8.89464 7.48043 9 7.73478 9 8C9 8.26522 8.89464 8.51957 8.70711 8.70711C8.51957 8.89464 8.26522 9 8 9ZM8 4C7.73478 4 7.48043 3.89464 7.29289 3.70711C7.10536 3.51957 7 3.26522 7 3C7 2.73478 7.10536 2.48043 7.29289 2.29289C7.48043 2.10536 7.73478 2 8 2C8.26522 2 8.51957 2.10536 8.70711 2.29289C8.89464 2.48043 9 2.73478 9 3C9 3.26522 8.89464 3.51957 8.70711 3.70711C8.51957 3.89464 8.26522 4 8 4Z" fill="#F5F5F5"/>
</svg>
