<svg width="13" height="15" viewBox="0 0 13 15" fill="none" xmlns="http://www.w3.org/2000/svg">
<path fill-rule="evenodd" clip-rule="evenodd" d="M6.98293 12.7219C7.07643 12.7851 7.1815 12.8292 7.2921 12.8516C7.4027 12.8741 7.51664 12.8745 7.62737 12.8527C7.73811 12.831 7.84346 12.7876 7.93737 12.725C8.03128 12.6624 8.11189 12.5819 8.17458 12.4881C8.23727 12.3942 8.2808 12.2889 8.30266 12.1782C8.32452 12.0675 8.32429 11.9536 8.30198 11.8429C8.27966 11.7323 8.23571 11.6272 8.17263 11.5336C8.10956 11.44 8.02862 11.3598 7.93446 11.2977C7.7457 11.1816 7.51932 11.1432 7.30287 11.1906C7.08642 11.2379 6.89674 11.3673 6.77368 11.5516C6.65062 11.7358 6.60376 11.9606 6.64294 12.1787C6.68212 12.3968 6.80429 12.5912 6.98379 12.7211L6.98293 12.7219ZM7.45912 8.58353C7.23197 8.58353 7.01413 8.4933 6.85351 8.33268C6.6929 8.17206 6.60266 7.95422 6.60266 7.72707C6.60266 7.49993 6.6929 7.28208 6.85351 7.12147C7.01413 6.96085 7.23197 6.87061 7.45912 6.87061C7.68627 6.87061 7.90411 6.96085 8.06473 7.12147C8.22535 7.28208 8.31558 7.49993 8.31558 7.72707C8.31558 7.95422 8.22535 8.17206 8.06473 8.33268C7.90411 8.4933 7.68627 8.58353 7.45912 8.58353ZM7.45912 4.30124C7.23197 4.30124 7.01413 4.211 6.85351 4.05039C6.6929 3.88977 6.60266 3.67192 6.60266 3.44478C6.60266 3.21763 6.6929 2.99979 6.85351 2.83917C7.01413 2.67855 7.23197 2.58832 7.45912 2.58832C7.68627 2.58832 7.90411 2.67855 8.06473 2.83917C8.22535 2.99979 8.31558 3.21763 8.31558 3.44478C8.31558 3.67192 8.22535 3.88977 8.06473 4.05039C7.90411 4.211 7.68627 4.30124 7.45912 4.30124Z" fill="#F5F5F5"/>
</svg>
