<svg width="5" height="5" viewBox="0 0 5 5" fill="none" xmlns="http://www.w3.org/2000/svg">
<path d="M3.78782 1.41406H1.38633C1.35707 1.4142 1.32887 1.42499 1.30699 1.4444C1.28511 1.46382 1.27105 1.49054 1.26744 1.51957L1.05642 3.42175C1.05454 3.43832 1.05617 3.4551 1.06121 3.47101C1.06624 3.48691 1.07457 3.50157 1.08564 3.51405C1.09671 3.52652 1.11028 3.53652 1.12548 3.54341C1.14067 3.55029 1.15714 3.55391 1.17382 3.55401H4.00033C4.01701 3.55391 4.03348 3.55029 4.04867 3.54341C4.06386 3.53652 4.07744 3.52652 4.08851 3.51405C4.09958 3.50157 4.10791 3.48691 4.11294 3.47101C4.11798 3.4551 4.11961 3.43832 4.11773 3.42175L3.90671 1.51957C3.9031 1.49054 3.88904 1.46382 3.86716 1.4444C3.84528 1.42499 3.81708 1.4142 3.78782 1.41406V1.41406Z" stroke="#4F0DA3" stroke-width="0.285326" stroke-linecap="round" stroke-linejoin="round"/>
<path d="M1.99219 1.89029V1.41474C1.99219 1.25709 2.05481 1.10589 2.16629 0.994417C2.27777 0.88294 2.42896 0.820313 2.58662 0.820312C2.74427 0.820312 2.89546 0.88294 3.00694 0.994417C3.11842 1.10589 3.18105 1.25709 3.18105 1.41474V1.89029" stroke="#4F0DA3" stroke-width="0.285326" stroke-linecap="round" stroke-linejoin="round"/>
</svg>
