<svg width="4" height="4" viewBox="0 0 4 4" fill="none" xmlns="http://www.w3.org/2000/svg">
<g clip-path="url(#clip0_2_3842)">
<path d="M2.35344 0.914307C2.08989 0.914307 1.85599 1.01989 1.69752 1.20138C1.53905 1.01989 1.30515 0.914307 1.0416 0.914307C0.812055 0.914589 0.591992 1.00726 0.42968 1.17201C0.267368 1.33675 0.176059 1.56011 0.175781 1.79309C0.175781 2.75629 1.56384 3.52589 1.62288 3.55825C1.64582 3.57079 1.67146 3.57735 1.69752 3.57735C1.72358 3.57735 1.74922 3.57079 1.77216 3.55825C1.8312 3.52589 3.21926 2.75629 3.21926 1.79309C3.21898 1.56011 3.12767 1.33675 2.96536 1.17201C2.80305 1.00726 2.58299 0.914589 2.35344 0.914307ZM2.28142 2.80982C2.09872 2.96718 1.90341 3.1088 1.69752 3.23323C1.49163 3.1088 1.29632 2.96718 1.11362 2.80982C0.829342 2.56229 0.490624 2.18481 0.490624 1.79309C0.490624 1.64477 0.548673 1.50253 0.652 1.39766C0.755328 1.29278 0.895471 1.23386 1.0416 1.23386C1.27511 1.23386 1.47057 1.35902 1.55177 1.56061C1.56359 1.59 1.58377 1.61515 1.60973 1.63285C1.63568 1.65055 1.66625 1.66001 1.69752 1.66001C1.72879 1.66001 1.75936 1.65055 1.78531 1.63285C1.81127 1.61515 1.83145 1.59 1.84327 1.56061C1.92447 1.35902 2.11993 1.23386 2.35344 1.23386C2.49957 1.23386 2.63971 1.29278 2.74304 1.39766C2.84637 1.50253 2.90442 1.64477 2.90442 1.79309C2.90442 2.18481 2.5657 2.56229 2.28142 2.80982Z" fill="#4F0DA3"/>
</g>
<defs>
<clipPath id="clip0_2_3842">
<rect width="3.2337" height="3.2337" fill="white" transform="translate(0.0810547 0.628906)"/>
</clipPath>
</defs>
</svg>
