<svg width="5" height="4" viewBox="0 0 5 4" fill="none" xmlns="http://www.w3.org/2000/svg">
<path d="M3.93606 0.617188H1.55834C1.49268 0.617188 1.43945 0.670415 1.43945 0.736073V3.11379C1.43945 3.17945 1.49268 3.23268 1.55834 3.23268H3.93606C4.00172 3.23268 4.05494 3.17945 4.05494 3.11379V0.736073C4.05494 0.670415 4.00172 0.617188 3.93606 0.617188Z" stroke="#4F0DA3" stroke-width="0.285326" stroke-linecap="round" stroke-linejoin="round"/>
<path d="M4.05494 2.40236L3.42633 1.77375C3.41527 1.76252 3.40209 1.75359 3.38754 1.74751C3.373 1.74142 3.35739 1.73828 3.34163 1.73828C3.32586 1.73828 3.31025 1.74142 3.29571 1.74751C3.28117 1.75359 3.26798 1.76252 3.25692 1.77375L2.59413 2.43654C2.58307 2.44777 2.56988 2.45669 2.55534 2.46278C2.5408 2.46887 2.52519 2.472 2.50943 2.472C2.49366 2.472 2.47805 2.46887 2.46351 2.46278C2.44897 2.45669 2.43578 2.44777 2.42472 2.43654L2.11859 2.13041C2.10753 2.11917 2.09434 2.11025 2.0798 2.10416C2.06526 2.09807 2.04965 2.09494 2.03388 2.09494C2.01812 2.09494 2.00251 2.09807 1.98797 2.10416C1.97342 2.11025 1.96024 2.11917 1.94918 2.13041L1.43945 2.64013" stroke="#4F0DA3" stroke-width="0.285326" stroke-linecap="round" stroke-linejoin="round"/>
</svg>
