<svg width="32" height="32" viewBox="0 0 32 32" fill="none" xmlns="http://www.w3.org/2000/svg">
<path d="M8 28.0001C10.2091 28.0001 12 26.2092 12 24.0001C12 21.7909 10.2091 20.0001 8 20.0001C5.79086 20.0001 4 21.7909 4 24.0001C4 26.2092 5.79086 28.0001 8 28.0001Z" fill="#C47EFB" stroke="#C47EFB" stroke-width="2.66667" stroke-linecap="round" stroke-linejoin="round"/>
<path d="M24 26.668C26.2091 26.668 28 24.8772 28 22.668C28 20.4589 26.2091 18.668 24 18.668C21.7909 18.668 20 20.4589 20 22.668C20 24.8772 21.7909 26.668 24 26.668Z" fill="#C47EFB" stroke="#C47EFB" stroke-width="2.66667" stroke-linecap="round" stroke-linejoin="round"/>
<path d="M28 4.00006L12 8.00006V13.3334L28 9.33339V4.00006Z" fill="#C47EFB"/>
<path d="M12 24.0001V13.3334M12 13.3334V8.00006L28 4.00006V9.33339M12 13.3334L28 9.33339M28 22.6667V9.33339" stroke="#C47EFB" stroke-width="2.66667" stroke-linecap="round" stroke-linejoin="round"/>
</svg>
