<svg width="5" height="5" viewBox="0 0 5 5" fill="none" xmlns="http://www.w3.org/2000/svg">
<path d="M2.39644 2.3339C2.65908 2.3339 2.87199 2.12099 2.87199 1.85836C2.87199 1.59572 2.65908 1.38281 2.39644 1.38281C2.13381 1.38281 1.9209 1.59572 1.9209 1.85836C1.9209 2.12099 2.13381 2.3339 2.39644 2.3339Z" stroke="#4F0DA3" stroke-width="0.285326" stroke-linecap="round" stroke-linejoin="round"/>
<path d="M3.58475 1.85683C3.58475 2.9268 2.39589 3.759 2.39589 3.759C2.39589 3.759 1.20703 2.9268 1.20703 1.85683C1.20703 1.54152 1.33229 1.23913 1.55524 1.01618C1.77819 0.793223 2.08059 0.667969 2.39589 0.667969C2.71119 0.667969 3.01359 0.793223 3.23654 1.01618C3.45949 1.23913 3.58475 1.54152 3.58475 1.85683V1.85683Z" stroke="#4F0DA3" stroke-width="0.285326" stroke-linecap="round" stroke-linejoin="round"/>
</svg>
