<svg width="4" height="4" viewBox="0 0 4 4" fill="none" xmlns="http://www.w3.org/2000/svg">
<path d="M0.52528 0.869242L1.39612 3.38516C1.43327 3.49365 1.58782 3.49068 1.622 3.38071L1.97272 2.24237C1.97801 2.22377 1.98805 2.20685 2.00186 2.19331C2.01567 2.17976 2.03277 2.17004 2.05148 2.1651L3.18832 1.81438C3.29829 1.78021 3.30126 1.62565 3.19278 1.5885L0.676859 0.717663C0.655721 0.710234 0.632913 0.708929 0.611065 0.7139C0.589217 0.718871 0.569219 0.729915 0.553376 0.745758C0.537532 0.761602 0.526488 0.7816 0.521517 0.803448C0.516546 0.825296 0.517851 0.848104 0.52528 0.869242V0.869242Z" stroke="#4F0DA3" stroke-width="0.285326" stroke-linecap="round" stroke-linejoin="round"/>
</svg>
