<svg width="5" height="5" viewBox="0 0 5 5" fill="none" xmlns="http://www.w3.org/2000/svg">
<path d="M1.31055 2.99219V4.00866C1.31055 4.04019 1.32307 4.07043 1.34537 4.09273C1.36766 4.11502 1.3979 4.12755 1.42943 4.12755H3.56938C3.60091 4.12755 3.63115 4.11502 3.65344 4.09273C3.67574 4.07043 3.68826 4.04019 3.68826 4.00866V2.99219" stroke="#4F0DA3" stroke-width="0.285326" stroke-linecap="round" stroke-linejoin="round"/>
<path d="M1.40018 1.51172H3.59957C3.62536 1.51193 3.6504 1.52042 3.671 1.53594C3.6916 1.55146 3.70667 1.57318 3.71399 1.59791L3.9265 2.34392H1.07324L1.28575 1.59791C1.29307 1.57318 1.30815 1.55146 1.32875 1.53594C1.34935 1.52042 1.37439 1.51193 1.40018 1.51172V1.51172Z" stroke="#4F0DA3" stroke-width="0.285326" stroke-linecap="round" stroke-linejoin="round"/>
<path d="M2.02433 2.34375V2.58152C2.02433 2.70764 1.97423 2.8286 1.88505 2.91778C1.79586 3.00696 1.67491 3.05707 1.54879 3.05707C1.42266 3.05707 1.30171 3.00696 1.21253 2.91778C1.12334 2.8286 1.07324 2.70764 1.07324 2.58152V2.34375" stroke="#4F0DA3" stroke-width="0.285326" stroke-linecap="round" stroke-linejoin="round"/>
<path d="M2.9755 2.34375V2.58152C2.9755 2.70764 2.9254 2.8286 2.83622 2.91778C2.74704 3.00696 2.62608 3.05707 2.49996 3.05707C2.37384 3.05707 2.25288 3.00696 2.1637 2.91778C2.07452 2.8286 2.02441 2.70764 2.02441 2.58152V2.34375" stroke="#4F0DA3" stroke-width="0.285326" stroke-linecap="round" stroke-linejoin="round"/>
<path d="M3.92667 2.34375V2.58152C3.92667 2.70764 3.87657 2.8286 3.78739 2.91778C3.69821 3.00696 3.57725 3.05707 3.45113 3.05707C3.32501 3.05707 3.20405 3.00696 3.11487 2.91778C3.02569 2.8286 2.97559 2.70764 2.97559 2.58152V2.34375" stroke="#4F0DA3" stroke-width="0.285326" stroke-linecap="round" stroke-linejoin="round"/>
</svg>
