<svg width="5" height="4" viewBox="0 0 5 4" fill="none" xmlns="http://www.w3.org/2000/svg">
<path d="M3.83789 1.21094H1.2224C1.15674 1.21094 1.10352 1.26416 1.10352 1.32982V3.232C1.10352 3.29766 1.15674 3.35088 1.2224 3.35088H3.83789C3.90355 3.35088 3.95678 3.29766 3.95678 3.232V1.32982C3.95678 1.26416 3.90355 1.21094 3.83789 1.21094Z" stroke="#4F0DA3" stroke-width="0.285326" stroke-linecap="round" stroke-linejoin="round"/>
<path d="M3.12441 3.34986V0.972147C3.12441 0.909086 3.09935 0.848608 3.05476 0.804017C3.01017 0.759426 2.94969 0.734375 2.88663 0.734375H2.17332C2.11026 0.734375 2.04978 0.759426 2.00519 0.804017C1.9606 0.848608 1.93555 0.909086 1.93555 0.972147V3.34986" stroke="#4F0DA3" stroke-width="0.285326" stroke-linecap="round" stroke-linejoin="round"/>
</svg>
