<svg width="4" height="5" viewBox="0 0 4 5" fill="none" xmlns="http://www.w3.org/2000/svg">
<path d="M3.25391 1.63281H0.638417C0.572758 1.63281 0.519531 1.68604 0.519531 1.7517V3.65387C0.519531 3.71953 0.572758 3.77276 0.638417 3.77276H3.25391C3.31957 3.77276 3.37279 3.71953 3.37279 3.65387V1.7517C3.37279 1.68604 3.31957 1.63281 3.25391 1.63281Z" stroke="#4F0DA3" stroke-width="0.285326" stroke-linecap="round" stroke-linejoin="round"/>
<path d="M2.54042 3.77174V1.39402C2.54042 1.33096 2.51537 1.27048 2.47078 1.22589C2.42619 1.1813 2.36571 1.15625 2.30265 1.15625H1.58933C1.52627 1.15625 1.4658 1.1813 1.4212 1.22589C1.37661 1.27048 1.35156 1.33096 1.35156 1.39402V3.77174" stroke="#4F0DA3" stroke-width="0.285326" stroke-linecap="round" stroke-linejoin="round"/>
</svg>
