<svg width="26" height="30" viewBox="0 0 26 30" fill="none" xmlns="http://www.w3.org/2000/svg">
<path d="M25.707 19.168L23 16.461V12.875C22.9969 10.3968 22.075 8.00785 20.4126 6.16998C18.7502 4.33212 16.4654 3.17593 14 2.925V0.875H12V2.925C9.53457 3.17593 7.24976 4.33212 5.58737 6.16998C3.92498 8.00785 3.0031 10.3968 3 12.875V16.461L0.293 19.168C0.105451 19.3555 5.66374e-05 19.6098 0 19.875V22.875C0 23.1402 0.105357 23.3946 0.292893 23.5821C0.48043 23.7696 0.734784 23.875 1 23.875H8V24.652C7.97825 25.9206 8.4254 27.1527 9.25578 28.112C10.0862 29.0714 11.2414 29.6906 12.5 29.851C13.1952 29.9199 13.8971 29.8426 14.5606 29.624C15.2241 29.4054 15.8345 29.0503 16.3525 28.5816C16.8706 28.1129 17.2848 27.541 17.5685 26.9027C17.8522 26.2643 17.9992 25.5736 18 24.875V23.875H25C25.2652 23.875 25.5196 23.7696 25.7071 23.5821C25.8946 23.3946 26 23.1402 26 22.875V19.875C25.9999 19.6098 25.8946 19.3555 25.707 19.168ZM16 24.875C16 25.6706 15.6839 26.4337 15.1213 26.9963C14.5587 27.5589 13.7956 27.875 13 27.875C12.2044 27.875 11.4413 27.5589 10.8787 26.9963C10.3161 26.4337 10 25.6706 10 24.875V23.875H16V24.875ZM24 21.875H2V20.289L4.707 17.582C4.89455 17.3945 4.99994 17.1402 5 16.875V12.875C5 10.7533 5.84285 8.71844 7.34315 7.21815C8.84344 5.71785 10.8783 4.875 13 4.875C15.1217 4.875 17.1566 5.71785 18.6569 7.21815C20.1571 8.71844 21 10.7533 21 12.875V16.875C21.0001 17.1402 21.1054 17.3945 21.293 17.582L24 20.289V21.875Z" fill="black"/>
</svg>
