<svg width="4" height="4" viewBox="0 0 4 4" fill="none" xmlns="http://www.w3.org/2000/svg">
<path d="M3.12297 0.980469C2.85942 0.980469 2.62552 1.08606 2.46705 1.26754C2.30858 1.08606 2.07468 0.980469 1.81113 0.980469C1.58159 0.980751 1.36152 1.07343 1.19921 1.23817C1.0369 1.40291 0.94559 1.62627 0.945312 1.85925C0.945313 2.82245 2.33337 3.59205 2.39241 3.62441C2.41535 3.63695 2.441 3.64351 2.46705 3.64351C2.49311 3.64351 2.51876 3.63695 2.5417 3.62441C2.60073 3.59205 3.98879 2.82245 3.98879 1.85925C3.98851 1.62627 3.8972 1.40291 3.73489 1.23817C3.57258 1.07343 3.35252 0.980751 3.12297 0.980469ZM3.05095 2.87598C2.86825 3.03334 2.67294 3.17497 2.46705 3.29939C2.26116 3.17497 2.06585 3.03334 1.88315 2.87598C1.59887 2.62845 1.26016 2.25098 1.26016 1.85925C1.26016 1.71094 1.3182 1.56869 1.42153 1.46382C1.52486 1.35894 1.665 1.30003 1.81113 1.30003C2.04464 1.30003 2.2401 1.42519 2.32131 1.62677C2.33312 1.65616 2.3533 1.68131 2.37926 1.69901C2.40521 1.71671 2.43578 1.72617 2.46705 1.72617C2.49832 1.72617 2.52889 1.71671 2.55485 1.69901C2.5808 1.68131 2.60098 1.65616 2.6128 1.62677C2.694 1.42519 2.88947 1.30003 3.12297 1.30003C3.2691 1.30003 3.40924 1.35894 3.51257 1.46382C3.6159 1.56869 3.67395 1.71094 3.67395 1.85925C3.67395 2.25098 3.33523 2.62845 3.05095 2.87598Z" fill="#4F0DA3"/>
</svg>
