<svg width="26" height="26" viewBox="0 0 26 26" fill="none" xmlns="http://www.w3.org/2000/svg">
<path d="M2.67534 19.0997C1.18645 16.5877 0.66565 13.6186 1.21072 10.7499C1.75579 7.88113 3.32925 5.30998 5.63569 3.51911C7.94213 1.72825 10.823 0.840843 13.7373 1.02349C16.6517 1.20613 19.3992 2.44626 21.464 4.51107C23.5288 6.57588 24.7689 9.32337 24.9516 12.2377C25.1342 15.1521 24.2468 18.0329 22.4559 20.3394C20.6651 22.6458 18.0939 24.2193 15.2252 24.7643C12.3564 25.3094 9.38732 24.7886 6.87534 23.2997V23.2997L2.72534 24.4747C2.55531 24.5244 2.37503 24.5275 2.20341 24.4836C2.03178 24.4397 1.87513 24.3504 1.74986 24.2252C1.6246 24.0999 1.53534 23.9433 1.49144 23.7716C1.44753 23.6 1.45061 23.4197 1.50034 23.2497L2.67534 19.0997Z" stroke="#C47EFB" stroke-width="2" stroke-linecap="round" stroke-linejoin="round"/>
</svg>
