<svg width="5" height="4" viewBox="0 0 5 4" fill="none" xmlns="http://www.w3.org/2000/svg">
<path d="M4.04374 1.68321C4.00387 1.63828 3.95485 1.6023 3.89993 1.57767C3.84501 1.55303 3.78545 1.5403 3.72521 1.54032H2.93645V1.35924C2.93625 1.18322 2.86587 1.01446 2.74075 0.889994C2.61563 0.765526 2.44599 0.695512 2.26904 0.695312C2.23525 0.695316 2.20213 0.704677 2.17339 0.722346C2.14464 0.740015 2.12141 0.765295 2.10629 0.795355L1.54976 1.90246H0.934227C0.853769 1.90246 0.776606 1.93426 0.719714 1.99085C0.662821 2.04745 0.630859 2.12421 0.630859 2.20425V3.53211C0.630859 3.61215 0.662821 3.68891 0.719714 3.74551C0.776606 3.8021 0.853769 3.8339 0.934227 3.8339H3.54319C3.6467 3.83388 3.74665 3.79626 3.82424 3.7281C3.90183 3.65994 3.95173 3.56594 3.96456 3.46376L4.14658 2.01518C4.15407 1.95576 4.14877 1.89543 4.13104 1.8382C4.11331 1.78096 4.08355 1.72813 4.04374 1.68321ZM0.9949 2.26461H1.48029V3.47175H0.9949V2.26461ZM3.78588 1.97036L3.60386 3.41894C3.602 3.43361 3.5948 3.44709 3.58361 3.45682C3.57243 3.46656 3.55805 3.47187 3.54319 3.47175H1.84433V2.12624L2.37249 1.07556C2.43107 1.0967 2.48168 1.13527 2.51745 1.18602C2.55322 1.23678 2.57241 1.29726 2.57241 1.35924V1.72139C2.57241 1.76941 2.59159 1.81547 2.62572 1.84943C2.65986 1.88338 2.70616 1.90246 2.75443 1.90246H3.72521C3.73385 1.90239 3.74242 1.90417 3.75032 1.90766C3.75822 1.91115 3.76528 1.91629 3.77103 1.92272C3.77678 1.92915 3.78107 1.93673 3.78363 1.94494C3.7862 1.95316 3.78696 1.96183 3.78588 1.97036Z" fill="#4F0DA3"/>
</svg>
