<svg width="4" height="4" viewBox="0 0 4 4" fill="none" xmlns="http://www.w3.org/2000/svg">
<path d="M3.73905 1.8004C3.69918 1.75547 3.65016 1.71949 3.59524 1.69485C3.54032 1.67022 3.48076 1.65749 3.42052 1.6575H2.63176V1.47643C2.63156 1.30041 2.56118 1.13165 2.43606 1.00718C2.31094 0.882714 2.1413 0.8127 1.96436 0.8125C1.93057 0.812504 1.89744 0.821864 1.8687 0.839533C1.83995 0.857202 1.81672 0.882482 1.8016 0.912542L1.24507 2.01965H0.629539C0.549081 2.01965 0.471919 2.05144 0.415026 2.10804C0.358134 2.16464 0.326172 2.2414 0.326172 2.32144V3.6493C0.326172 3.72934 0.358134 3.8061 0.415026 3.8627C0.471919 3.91929 0.549081 3.95109 0.629539 3.95109H3.2385C3.34201 3.95107 3.44196 3.91345 3.51955 3.84529C3.59715 3.77713 3.64705 3.68313 3.65988 3.58095L3.8419 2.13237C3.84938 2.07294 3.84409 2.01262 3.82636 1.95538C3.80863 1.89815 3.77887 1.84532 3.73905 1.8004ZM0.690213 2.38179H1.1756V3.58894H0.690213V2.38179ZM3.48119 2.08755L3.29917 3.53613C3.29731 3.5508 3.29011 3.56428 3.27893 3.57401C3.26774 3.58375 3.25336 3.58906 3.2385 3.58894H1.53964V2.24342L2.0678 1.19275C2.12638 1.21389 2.17699 1.25246 2.21276 1.30321C2.24853 1.35397 2.26772 1.41445 2.26772 1.47643V1.83858C2.26772 1.8866 2.2869 1.93266 2.32104 1.96661C2.35517 2.00057 2.40147 2.01965 2.44974 2.01965H3.42052C3.42917 2.01958 3.43773 2.02135 3.44563 2.02485C3.45354 2.02834 3.4606 2.03347 3.46634 2.03991C3.47209 2.04634 3.47639 2.05391 3.47895 2.06213C3.48151 2.07035 3.48227 2.07902 3.48119 2.08755Z" fill="#4F0DA3"/>
</svg>
