<svg width="24" height="24" viewBox="0 0 24 24" fill="none" xmlns="http://www.w3.org/2000/svg">
<path d="M16.4945 3.58984C14.5597 3.58984 12.9065 4.96892 11.9982 5.91969C11.0899 4.96892 9.44034 3.58984 7.5065 3.58984C4.17327 3.58984 1.84619 5.91323 1.84619 9.23907C1.84619 12.9037 4.73634 15.2723 7.53234 17.5634C8.85234 18.6462 10.2185 19.7649 11.2662 21.0055C11.4425 21.2132 11.701 21.3332 11.9723 21.3332H12.0259C12.2982 21.3332 12.5557 21.2123 12.7311 21.0055C13.7807 19.7649 15.1459 18.6452 16.4668 17.5634C19.2619 15.2732 22.1539 12.9046 22.1539 9.23907C22.1539 5.91323 19.8268 3.58984 16.4945 3.58984Z" fill="#4F0DA3"/>
</svg>
